<svg xmlns="http://www.w3.org/2000/svg" viewBox="0 0 1200 675" fill="none">
  <defs>
    <linearGradient id="bg" x1="95" y1="18" x2="1110" y2="650" gradientUnits="userSpaceOnUse"><stop stop-color="#231D35"/><stop offset=".58" stop-color="#111018"/><stop offset="1" stop-color="#0B0A10"/></linearGradient>
    <linearGradient id="line" x1="0" y1="0" x2="1" y2="0"><stop stop-color="#A879FF"/><stop offset="1" stop-color="#6A58D3"/></linearGradient>
  </defs>
  <rect width="1200" height="675" rx="28" fill="url(#bg)"/>
  <circle cx="1030" cy="145" r="170" fill="#8D69D6" fill-opacity=".11"/>
  <rect x="28" y="28" width="1144" height="619" rx="22" stroke="white" stroke-opacity=".14"/>
  <rect x="28" y="28" width="1144" height="54" rx="22" fill="#08080D" fill-opacity=".55"/>
  <circle cx="55" cy="55" r="6" fill="#F87171"/><circle cx="76" cy="55" r="6" fill="#FBBF24"/><circle cx="97" cy="55" r="6" fill="#4ADE80"/>
  <text x="136" y="60" fill="#CFC9D9" font-family="Arial,sans-serif" font-size="13" font-weight="600">ANIME REALMS  /  QUEST JOURNAL</text>
  <text x="76" y="151" fill="#B99EFF" font-family="Arial,sans-serif" font-size="11" font-weight="700" letter-spacing="2.5">CHAPTER 04  ·  THE VEILED PASS</text>
  <text x="76" y="197" fill="#FFFFFF" font-family="Arial,sans-serif" font-size="34" font-weight="700">Paths through the mist</text>
  <text x="76" y="225" fill="#C3B8D2" font-family="Arial,sans-serif" font-size="14">A representative quest journal for your next adventure.</text>
  <rect x="76" y="263" width="1048" height="100" rx="16" fill="#FFFFFF" fill-opacity=".045" stroke="#C7A9FF" stroke-opacity=".34"/>
  <rect x="96" y="282" width="62" height="62" rx="14" fill="#9A6AFF" fill-opacity=".19"/>
  <path d="m127 296 14 24h-28l14-24Z" stroke="#D9C6FF" stroke-width="2"/><circle cx="127" cy="319" r="3" fill="#D9C6FF"/>
  <text x="181" y="298" fill="#C9AFFF" font-family="Arial,sans-serif" font-size="9" font-weight="700" letter-spacing="1.5">STORY QUEST</text>
  <text x="181" y="323" fill="#FFFFFF" font-family="Arial,sans-serif" font-size="17" font-weight="700">A light beyond the pass</text>
  <text x="181" y="344" fill="#A7A0B3" font-family="Arial,sans-serif" font-size="11">Follow the old trail and discover where the scattered lanterns lead.</text>
  <rect x="950" y="299" width="143" height="31" rx="15.5" fill="#A879FF" fill-opacity=".16" stroke="#C3A5FF" stroke-opacity=".4"/>
  <text x="1022" y="319" fill="#E1D5FF" font-family="Arial,sans-serif" font-size="10" font-weight="700" text-anchor="middle">CONTINUE STORY</text>
  <text x="76" y="411" fill="#9D95AC" font-family="Arial,sans-serif" font-size="10" font-weight="700" letter-spacing="1.5">AVAILABLE OBJECTIVES</text>
  <rect x="76" y="430" width="334" height="125" rx="15" fill="#FFFFFF" fill-opacity=".035" stroke="#FFFFFF" stroke-opacity=".1"/>
  <circle cx="108" cy="465" r="14" fill="#9A6AFF" fill-opacity=".2"/><path d="M102 465h12m-6-6v12" stroke="#D9C6FF" stroke-width="1.5"/>
  <text x="135" y="462" fill="#FFFFFF" font-family="Arial,sans-serif" font-size="13" font-weight="700">Gather the lost pages</text>
  <text x="135" y="483" fill="#918A9E" font-family="Arial,sans-serif" font-size="10">Explore the pass and search for clues.</text>
  <rect x="97" y="513" width="273" height="5" rx="2.5" fill="#FFFFFF" fill-opacity=".09"/><rect x="97" y="513" width="126" height="5" rx="2.5" fill="url(#line)"/>
  <text x="385" y="519" fill="#A7A0B3" font-family="Arial,sans-serif" font-size="9" text-anchor="end">2 / 5</text>
  <rect x="433" y="430" width="334" height="125" rx="15" fill="#FFFFFF" fill-opacity=".035" stroke="#FFFFFF" stroke-opacity=".1"/>
  <circle cx="465" cy="465" r="14" fill="#735AC7" fill-opacity=".23"/><path d="m459 468 6-8 6 8m-12 4h12" stroke="#D9C6FF" stroke-width="1.4"/>
  <text x="492" y="462" fill="#FFFFFF" font-family="Arial,sans-serif" font-size="13" font-weight="700">Prepare your roster</text>
  <text x="492" y="483" fill="#918A9E" font-family="Arial,sans-serif" font-size="10">Choose a team for the next encounter.</text>
  <rect x="454" y="513" width="273" height="5" rx="2.5" fill="#FFFFFF" fill-opacity=".09"/><rect x="454" y="513" width="65" height="5" rx="2.5" fill="url(#line)"/>
  <text x="742" y="519" fill="#A7A0B3" font-family="Arial,sans-serif" font-size="9" text-anchor="end">1 / 4</text>
  <rect x="790" y="430" width="334" height="125" rx="15" fill="#FFFFFF" fill-opacity=".035" stroke="#FFFFFF" stroke-opacity=".1"/>
  <circle cx="822" cy="465" r="14" fill="#4E668E" fill-opacity=".35"/><path d="M822 457v16m-7-8h14" stroke="#C6D5FF" stroke-width="1.4"/>
  <text x="849" y="462" fill="#FFFFFF" font-family="Arial,sans-serif" font-size="13" font-weight="700">Visit the guild hall</text>
  <text x="849" y="483" fill="#918A9E" font-family="Arial,sans-serif" font-size="10">Check the community notice board.</text>
  <rect x="811" y="513" width="273" height="5" rx="2.5" fill="#FFFFFF" fill-opacity=".09"/><rect x="811" y="513" width="0" height="5" rx="2.5" fill="url(#line)"/>
  <text x="1099" y="519" fill="#A7A0B3" font-family="Arial,sans-serif" font-size="9" text-anchor="end">0 / 1</text>
  <text x="76" y="604" fill="#817B8E" font-family="Arial,sans-serif" font-size="10">REPRESENTATIVE INTERFACE CONCEPT</text>
</svg>
